<svg xmlns="http://www.w3.org/2000/svg" width="512" height="512" viewBox="0 0 512 512">
  <defs>
    <linearGradient id="g" x1="0" x2="1" y1="0" y2="1">
      <stop offset="0" stop-color="#60a5fa"/>
      <stop offset="1" stop-color="#22c55e"/>
    </linearGradient>
  </defs>
  <rect x="32" y="32" width="448" height="448" rx="96" fill="#111827"/>
  <rect x="44" y="44" width="424" height="424" rx="90" fill="url(#g)" opacity="0.18"/>
  <g fill="#e5e7eb">
    <path d="M154 170h204c9 0 16 7 16 16v140c0 9-7 16-16 16H154c-9 0-16-7-16-16V186c0-9 7-16 16-16zm6 34v104h192V204H160z" opacity="0.95"/>
    <path d="M186 242c0-30 24-54 54-54h6c30 0 54 24 54 54v28c0 30-24 54-54 54h-6c-30 0-54-24-54-54v-28zm54-26c-14 0-26 12-26 26v28c0 14 12 26 26 26h6c14 0 26-12 26-26v-28c0-14-12-26-26-26h-6z"/>
  </g>
  <text x="256" y="410" text-anchor="middle" font-size="44" font-weight="800" fill="#9ca3af" font-family="ui-sans-serif, system-ui">EN</text>
</svg>


